<svg width="512" height="512" viewBox="0 0 512 512" xmlns="http://www.w3.org/2000/svg">
  <defs>
    <linearGradient id="logoGradient" x1="0%" y1="0%" x2="100%" y2="100%">
      <stop offset="0%" style="stop-color:#06b6d4;stop-opacity:1" />
      <stop offset="50%" style="stop-color:#3b82f6;stop-opacity:1" />
      <stop offset="100%" style="stop-color:#1e40af;stop-opacity:1" />
    </linearGradient>
    <linearGradient id="arrowGradient" x1="0%" y1="0%" x2="100%" y2="100%">
      <stop offset="0%" style="stop-color:#ffffff;stop-opacity:1" />
      <stop offset="100%" style="stop-color:#e0f2fe;stop-opacity:1" />
    </linearGradient>
    <filter id="shadow" x="-50%" y="-50%" width="200%" height="200%">
      <feDropShadow dx="0" dy="8" stdDeviation="16" flood-color="#0f172a" flood-opacity="0.3"/>
    </filter>
  </defs>
  
  <!-- Background circle for app icon style -->
  <rect width="512" height="512" rx="128" ry="128" fill="url(#logoGradient)" filter="url(#shadow)"/>
  
  <!-- Main diamond shape -->
  <path d="M256 64 L448 256 L256 448 L64 256 Z" fill="none" stroke="#ffffff" stroke-width="12" opacity="0.8"/>
  <path d="M256 64 L384 256 L256 448 L128 256 Z" fill="#ffffff" opacity="0.15"/>
  <path d="M256 96 L384 256 L256 416 L128 256 Z" fill="#ffffff" opacity="0.25"/>
  
  <!-- Inner arrow pointing up and right -->
  <g stroke="url(#arrowGradient)" stroke-width="16" fill="none" stroke-linecap="round" stroke-linejoin="round">
    <path d="M192 320 L256 256 L320 320"/>
    <path d="M256 256 L256 192"/>
  </g>
  
  <!-- Small accent dots -->
  <circle cx="256" cy="192" r="8" fill="url(#arrowGradient)" opacity="0.8"/>
  <circle cx="320" cy="256" r="6" fill="url(#arrowGradient)" opacity="0.6"/>
  <circle cx="256" cy="320" r="6" fill="url(#arrowGradient)" opacity="0.6"/>
  <circle cx="192" cy="256" r="6" fill="url(#arrowGradient)" opacity="0.6"/>
</svg>
