<svg width="1024" height="1024" viewBox="0 0 1024 1024" xmlns="http://www.w3.org/2000/svg">
  <defs>
    <linearGradient id="logoGradientSquare" x1="0%" y1="0%" x2="100%" y2="100%">
      <stop offset="0%" style="stop-color:#06b6d4;stop-opacity:1" />
      <stop offset="25%" style="stop-color:#0ea5e9;stop-opacity:1" />
      <stop offset="75%" style="stop-color:#3b82f6;stop-opacity:1" />
      <stop offset="100%" style="stop-color:#1e40af;stop-opacity:1" />
    </linearGradient>
    <linearGradient id="arrowGradientSquare" x1="0%" y1="0%" x2="100%" y2="100%">
      <stop offset="0%" style="stop-color:#ffffff;stop-opacity:1" />
      <stop offset="100%" style="stop-color:#e0f2fe;stop-opacity:0.9" />
    </linearGradient>
    <filter id="shadowSquare" x="-20%" y="-20%" width="140%" height="140%">
      <feDropShadow dx="0" dy="16" stdDeviation="32" flood-color="#0f172a" flood-opacity="0.4"/>
    </filter>
  </defs>
  
  <!-- Background with rounded corners -->
  <rect width="1024" height="1024" rx="200" ry="200" fill="url(#logoGradientSquare)" filter="url(#shadowSquare)"/>
  
  <!-- Main diamond shape -->
  <path d="M512 128 L896 512 L512 896 L128 512 Z" fill="none" stroke="#ffffff" stroke-width="20" opacity="0.9"/>
  <path d="M512 128 L768 512 L512 896 L256 512 Z" fill="#ffffff" opacity="0.12"/>
  <path d="M512 160 L768 512 L512 864 L256 512 Z" fill="#ffffff" opacity="0.2"/>
  <path d="M512 192 L736 512 L512 832 L288 512 Z" fill="#ffffff" opacity="0.15"/>
  
  <!-- Inner arrow pointing up and right -->
  <g stroke="url(#arrowGradientSquare)" stroke-width="32" fill="none" stroke-linecap="round" stroke-linejoin="round">
    <path d="M384 640 L512 512 L640 640"/>
    <path d="M512 512 L512 384"/>
  </g>
  
  <!-- Accent elements -->
  <circle cx="512" cy="384" r="16" fill="url(#arrowGradientSquare)" opacity="0.9"/>
  <circle cx="640" cy="512" r="12" fill="url(#arrowGradientSquare)" opacity="0.7"/>
  <circle cx="512" cy="640" r="12" fill="url(#arrowGradientSquare)" opacity="0.7"/>
  <circle cx="384" cy="512" r="12" fill="url(#arrowGradientSquare)" opacity="0.7"/>
  
  <!-- Additional geometric elements for depth -->
  <path d="M512 256 L640 384 L512 512 L384 384 Z" fill="none" stroke="url(#arrowGradientSquare)" stroke-width="8" opacity="0.5"/>
</svg>
